<svg xmlns="http://www.w3.org/2000/svg" xmlns:xlink="http://www.w3.org/1999/xlink" version="1.1" id="Layer_1" x="0px" y="0px" width="600px" height="794.774px" viewBox="0 0 600 794.774" enable-background="new 0 0 600 794.774" xml:space="preserve">
<g>
	<path fill="#98252B" d="M300 471.328l-45.381-29.643V382.5l-79.225-51.772c-6.781-4.436-11.731-5.59-14.821-3.466 c-3.09 2.139-4.635 7.722-4.635 16.778v125.908c0 9.04 1.59 16.73 4.75 23.019c3.176 6.29 8.07 11.61 14.71 15.94 L300 589.44V471.403V471.328z"/>
	<path fill="#98252B" d="M300 650.034l-139.756-91.327c-17.196-11.242-30.786-25.348-40.743-42.35 c-9.957-17.001-14.95-34.479-14.95-52.432V283.345c0-17.953 4.993-28.916 14.95-32.902c9.957-3.97 23.547-0.336 40.74 10.89 L300 352.677V193.031v-0.037L0 0v9.705v291.266v150.055v150.056l300 193.692V650.109V650.034z"/>
	<path fill="#F4CD00" d="M300 589.44l-124.606-80.531c-6.638-4.339-11.531-9.658-14.707-15.944 c-3.161-6.286-4.749-13.977-4.749-23.019V344.039c0-9.056 1.546-14.638 4.635-16.778c3.09-2.125 8.04-0.97 14.82 3.47 l79.225 51.772v59.184L300 471.328V352.753v-0.075l-139.756-91.342c-17.196-11.228-30.786-14.862-40.743-10.892 c-9.957 3.986-14.95 14.949-14.95 32.902v180.579c0 17.95 4.99 35.43 14.95 52.432c9.957 17 23.55 31.11 40.74 42.35 L300 650.034v-60.519V589.44z"/>
	<path fill="#C3002F" d="M300 589.44l124.607-80.531c6.638-4.339 11.53-9.658 14.706-15.944c3.161-6.286 4.749-13.977 4.749-23.019 V344.039c0-9.056-1.545-14.638-4.635-16.778c-3.09-2.125-8.04-0.97-14.82 3.466L345.381 382.5v59.184L300 471.328v0.075V589.44z"/>
	<path fill="#C3002F" d="M300 192.994v0.037v159.647l139.756-91.342c17.196-11.228 30.786-14.862 40.743-10.892 c9.957 3.99 14.95 14.95 14.95 32.902v180.579c0 17.954-4.993 35.431-14.95 52.432c-9.957 17.001-23.547 31.108-40.743 42.35 L300 650.034v0.075v144.665l300-193.692V451.026V300.971V9.705V0L300 192.994z"/>
	<path fill="#FFFFFF" d="M300 471.328l45.381-29.643V382.5l79.226-51.772c6.781-4.436 11.731-5.59 14.82-3.466 c3.09 2.14 4.63 7.72 4.63 16.778v125.908c0 9.042-1.588 16.733-4.749 23.019c-3.176 6.285-8.068 11.605-14.706 15.94 L300 589.44v0.075v60.519l139.756-91.327c17.196-11.242 30.786-25.348 40.743-42.35c9.957-17.001 14.95-34.479 14.95-52.432 V283.345c0-17.953-4.993-28.916-14.95-32.902c-9.957-3.97-23.547-0.336-40.743 10.892L300 352.677v0.075V471.328z"/>
</g>
</svg>
